# xmcd
#
# Track frame offsets: 
#        150
#        22396
#        47187
#        64345
#        80290
#        89562
#        105075
#        121495
#        139422
#        165993
#        205462
#
# Disc length: 2792 seconds
#
# Revision: 3
# Processed by: cddbd v1.5.2PL0 Copyright (c) Steve Scherf et al.
# Submitted via: ExactAudioCopy v0.99pb5
#
DISCID=9b0ae60b
DTITLE=Blackfoot - Highway Song (Live)
DYEAR=1982
DGENRE=Southern Rock
TTITLE0=Gimme, Gimme, Gimme
TTITLE1=Every Man Should Know (Queenie)
TTITLE2=Good Morning
TTITLE3=Dry Country
TTITLE4=Rollin' and Tumblin'
TTITLE5=Fly Away
TTITLE6=Road Fever
TTITLE7=Trouble In Mind
TTITLE8=Train Train
TTITLE9=Highway Song
TTITLE10=Howay The Lads
EXTD=2002 re-issue
EXTT0=
EXTT1=
EXTT2=
EXTT3=
EXTT4=
EXTT5=
EXTT6=
EXTT7=
EXTT8=
EXTT9=
EXTT10=
PLAYORDER=
